# xmcd CD database file
#
# Track frame offsets:
#	183
#	59858
#	103835
#	158543
#	204710
#	247453
#	287693
#
# Disc length: 4377 seconds
#
# Revision: 1
# Processed by: cddbd v1.5.1PL2 Copyright (c) Steve Scherf et al.
# Submitted via: CDex 1.51
#
DISCID=6f111707
DTITLE=Steve Grossman - In New York
DYEAR=1992
DGENRE=Jazz
TTITLE0=speak low
TTITLE1=my ship
TTITLE2=softly as in a morning sunrise
TTITLE3=impressions
TTITLE4=over the rainbow
TTITLE5=love for sal
TTITLE6=good bait
EXTD=YEAR: 1992
EXTT0=
EXTT1=
EXTT2=
EXTT3=
EXTT4=
EXTT5=
EXTT6=
PLAYORDER=
